<svg width="726" height="412" viewBox="0 0 726 412" fill="none" xmlns="http://www.w3.org/2000/svg">
<path d="M310.672 198.845L372.605 137.101L310.672 75.3566L329.554 56.5376L410.369 137.101L329.554 217.664L310.672 198.845Z" fill="#E6E6E6"/>
<path d="M158.986 112.33H133.81V137.506H158.986V112.33Z" fill="#E6E6E6"/>
<path d="M260.194 112.33H235.018V137.506H260.194V112.33Z" fill="#E6E6E6"/>
<path d="M209.59 112.33H184.414V137.506H209.59V112.33Z" fill="#E6E6E6"/>
<path d="M99.697 198.215L37.701 136.471L99.634 74.7274L80.752 55.9084L0 136.471L80.815 217.034L99.697 198.215Z" fill="#E6E6E6"/>
<path d="M310.672 186.887L372.605 125.143L310.672 63.3976L329.554 44.5786L410.369 125.143L329.554 205.706L310.672 186.887Z" fill="#A4B3C2"/>
<path d="M133.81 129.548H158.986V104.372H133.81L133.81 129.548ZM260.194 104.372H235.018V129.548H260.194V104.372ZM184.414 129.548H209.59V104.372H184.414V129.548Z" fill="#A4B3C2"/>
<path d="M99.697 186.256L37.701 124.512L99.634 62.7685L80.752 43.9495L0 124.512L80.815 205.075L99.697 186.256Z" fill="#A4B3C2"/>
<path d="M579.806 240.076C578.837 238.971 578.121 237.667 577.71 236.255C577.3 234.844 577.203 233.36 577.428 231.907C577.653 230.454 578.194 229.068 579.012 227.847C579.83 226.626 580.907 225.599 582.165 224.839L574.731 189.885L592.021 196.66L596.429 228.813C597.567 231.012 597.858 233.551 597.248 235.949C596.638 238.348 595.17 240.44 593.121 241.828C591.072 243.217 588.584 243.805 586.13 243.482C583.677 243.159 581.426 241.948 579.806 240.076V240.076Z" fill="#FFB8B8"/>
<path d="M577.843 212.804L577.75 212.461C568.403 177.89 558.742 142.153 546.946 103.241L546.868 102.987L547.129 102.835C553.703 98.9982 563.585 99.2537 570.115 103.428C573.07 105.332 575.37 108.098 576.701 111.352C578.032 114.606 578.332 118.19 577.558 121.62L586.161 166.477C589.659 181.14 593.279 196.318 596.739 211.283L596.837 211.707L596.301 211.741C590.002 212.142 583.494 212.556 578.28 212.785L577.843 212.804Z" fill="#CCCCCC"/>
<path d="M498.409 398.868H486.149L480.315 351.581H498.409V398.868Z" fill="#FFB8B8"/>
<path d="M501.536 410.752H462.006V410.252C462.01 406.172 463.633 402.261 466.518 399.377C469.402 396.492 473.313 394.87 477.393 394.865H501.536L501.536 410.752Z" fill="#2F2E41"/>
<path d="M613.934 388.754L602.252 392.476L582.336 349.192L599.577 343.698L613.934 388.754Z" fill="#FFB8B8"/>
<path d="M582.856 411.13L582.705 410.653C581.471 406.765 581.829 402.546 583.702 398.922C585.575 395.298 588.808 392.564 592.694 391.321L615.698 383.991L620.521 399.128L582.856 411.13Z" fill="#2F2E41"/>
<path d="M551.882 71.5608C565.447 71.5608 576.443 60.5644 576.443 46.9997C576.443 33.4351 565.447 22.4387 551.882 22.4387C538.317 22.4387 527.321 33.4351 527.321 46.9997C527.321 60.5644 538.317 71.5608 551.882 71.5608Z" fill="#FFB8B8"/>
<path d="M562.909 42.4479C563.049 32.5415 558.903 22.7306 552.493 17.7979C549.472 15.4044 545.714 14.1332 541.86 14.2013C538.006 14.2694 534.295 15.6726 531.361 18.1714C525.05 23.3288 521.098 33.2829 521.433 43.1809C535.573 43.2211 549.714 43.2613 562.909 42.4479Z" fill="#2F2E41"/>
<path d="M505.409 383.646L504.917 383.598C494.251 382.552 483.222 381.471 472.799 381.346L472.232 381.34L472.31 380.778C474.779 362.892 475.826 344.299 476.838 326.316C477.838 308.56 478.872 290.2 481.279 272.763C482.298 268.094 483.291 263.48 484.28 258.883C492.465 220.84 500.197 184.906 516.156 149.336L516.307 149L516.673 149.044C531.647 150.856 546.036 156.32 557.188 164.427L557.404 164.584L557.394 164.851C557.179 170.376 556.956 176.088 557.286 181.29C562.347 188.323 565.701 196.439 567.082 204.993C568.462 213.547 567.831 222.305 565.24 230.574C569.631 245.249 574.17 260.419 578.802 275.383C590.051 306.221 601.691 338.135 613.622 370.484L613.818 371.014L613.268 371.143C604.683 373.159 595.827 375.237 587.091 376.044L586.761 376.074L586.604 375.782C564.325 334.322 546.207 290.757 532.516 245.726C529.534 254.818 525.239 263.025 521.078 270.975C517.099 278.205 513.597 285.689 510.596 293.377C508.755 308.498 508.266 324.881 507.794 340.723C507.348 355.703 506.926 369.851 505.463 383.155L505.409 383.646Z" fill="#2F2E41"/>
<path d="M543.497 18.2523C554.143 15.9586 565.919 18.1408 574.28 25.3237C582.64 32.5066 586.886 44.9328 583.451 55.5898C580.017 66.2468 568.355 73.7451 557.812 70.993C560.832 62.4807 557.433 52.0295 550.049 47.1263C541.293 41.3116 538.883 27.4293 543.497 18.2523Z" fill="#2F2E41"/>
<path d="M556.422 165.496L556.033 165.318C542.452 159.122 529.135 154.368 516.657 150.03L516.275 149.947L516.274 148.838L516.522 148.924C516.574 148.809 516.633 148.678 516.692 148.548C516.862 148.171 516.979 147.914 517.078 147.744L517.075 147.743C518.115 145.623 518.942 143.575 519.742 141.594C520.567 139.549 521.419 137.438 522.519 135.205C519.851 132.53 518.025 129.132 517.265 125.431C516.505 121.729 516.845 117.887 518.243 114.376C520.999 107.844 528.027 102.756 535.411 101.912C538.117 94.4629 544.146 78.8115 544.146 78.8115C544.146 78.8115 556.824 78.4634 561.923 77.8164L562.009 77.8057L562.093 77.8242C573.224 80.2632 582.517 90.7959 584.691 103.438C586.526 114.108 583.739 126.313 576.844 137.804C573.306 143.423 569.394 148.798 565.134 153.893C562.028 157.776 559.094 161.444 556.658 165.139L556.422 165.496Z" fill="#CCCCCC"/>
<path d="M581.006 32.807C573.553 31.6945 567.702 24.0765 568.549 16.5892C569.396 9.10195 576.802 2.98381 584.314 3.56457C591.827 4.14533 598.204 11.3289 597.891 18.8575C597.577 26.386 590.521 34.2273 581.006 32.807Z" fill="#2F2E41"/>
<path d="M579.842 27.9521C572.39 26.8397 566.539 19.2216 567.386 11.7344C567.755 9.1877 568.764 6.77602 570.317 4.72417C571.87 2.67231 573.917 1.04708 576.268 0C570.258 1.31543 565.085 6.5525 564.386 12.7344C563.539 20.2216 569.39 27.8397 576.842 28.9521C579.619 29.3879 582.463 28.9902 585.014 27.8092C583.313 28.1664 581.561 28.2148 579.842 27.9521V27.9521Z" fill="#2F2E41"/>
<path d="M435.284 159.93C436.003 158.647 436.994 157.538 438.188 156.681C439.382 155.823 440.75 155.238 442.194 154.965C443.639 154.693 445.126 154.742 446.55 155.106C447.974 155.471 449.301 156.144 450.437 157.077L480.916 138.421L480.289 156.98L451.442 171.85C449.748 173.655 447.451 174.776 444.986 175C442.521 175.224 440.06 174.536 438.068 173.067C436.076 171.598 434.693 169.449 434.18 167.027C433.667 164.606 434.059 162.081 435.284 159.93V159.93Z" fill="#FFB8B8"/>
<path d="M460.344 148.992L460.636 148.79C490.118 128.459 520.594 107.442 553.352 83.3557L553.566 83.1978L553.796 83.3925C559.604 88.3132 562.655 97.7157 560.895 105.263C560.085 108.684 558.243 111.774 555.619 114.113C552.994 116.452 549.714 117.929 546.223 118.342L506.795 141.4C494.136 149.583 481.031 158.053 468.074 166.301L467.706 166.535L467.496 166.041C465.019 160.236 462.46 154.237 460.507 149.397L460.344 148.992Z" fill="#CCCCCC"/>
<path d="M724.215 411.869H343.215C342.95 411.869 342.696 411.764 342.508 411.576C342.32 411.389 342.215 411.134 342.215 410.869C342.215 410.604 342.32 410.349 342.508 410.162C342.696 409.974 342.95 409.869 343.215 409.869H724.215C724.48 409.869 724.735 409.974 724.922 410.162C725.11 410.349 725.215 410.604 725.215 410.869C725.215 411.134 725.11 411.389 724.922 411.576C724.735 411.764 724.48 411.869 724.215 411.869Z" fill="#3F3D56"/>
</svg>
